<svg width="50" height="50" viewBox="0 0 50 50" fill="none" xmlns="http://www.w3.org/2000/svg">
<g clip-path="url(#clip0_10288_688)">
<path d="M50 25C50 11.1929 38.8071 0 25 0C11.1929 0 0 11.1929 0 25C0 38.8071 11.1929 50 25 50C38.8071 50 50 38.8071 50 25Z" fill="#EC433D"/>
<path fill-rule="evenodd" clip-rule="evenodd" d="M23.4127 8.00119C20.1526 8.31241 17.1603 9.54126 14.697 11.4266L17.3722 14.3991C19.1571 13.0929 21.2849 12.2275 23.5954 11.9631L23.4127 8.00119ZM26.5062 11.952L26.6919 8.00098C35.3428 8.82548 42.1091 16.112 42.1091 24.9789C42.1091 29.155 40.6082 32.9806 38.1163 35.9456L35.2426 33.2739C37.0925 31.0149 38.2025 28.1265 38.2025 24.9789C38.2025 18.2178 33.0812 12.653 26.5062 11.952ZM33.2443 35.2428C31.0084 37.0191 28.1787 38.0803 25.1012 38.0803C23.2975 38.0803 21.5791 37.7158 20.0153 37.0566L18.213 40.6073C20.307 41.5251 22.6208 42.0345 25.0535 42.0345C29.1838 42.0345 32.9713 40.5663 35.9223 38.1234L33.2443 35.2428ZM15.4351 39.0656L17.4957 35.648C14.8975 33.7926 13.0056 31.0117 12.3014 27.7869L8.30619 28.2235C9.1709 32.7132 11.796 36.5761 15.4351 39.0656ZM7.99805 24.9228L12.0013 24.7785C12.0497 21.5513 13.2649 18.607 15.2438 16.3486L12.3637 13.583C9.66098 16.5905 8.01205 20.5642 7.99805 24.9228Z" fill="white"/>
</g>
<defs>
<clipPath id="clip0_10288_688">
<rect width="50" height="50" fill="white"/>
</clipPath>
</defs>
</svg>
